<svg aria-hidden="true" style="position:absolute;width:0;height:0;overflow:hidden" xmlns="http://www.w3.org/2000/svg"><defs></symbol><symbol id="icon-VectorV" viewBox="0 0 32 32"><path  stroke-width=".492" d="m4.817 15.389-.169-.162-2.544 2.41 8.962 8.55L29.895 8.225l-2.527-2.411L11.066 21.35l-6.249-5.962z"/></symbol><symbol id="icon-send" viewBox="0 0 32 32"><path d="M32 0 0 18l10.227 3.788L26 7 14.002 23.186l.01.004-.012-.004V32l5.735-6.691L27 28l5-28z"/></symbol><symbol id="icon-right-arrow" viewBox="0 0 32 32"><path d="M0 15.999a3.174 3.174 0 0 0 3.17 3.168l18.011-.002-4.868 4.869c-1.318 1.319-1.386 3.392-.149 4.631 1.238 1.234 3.311 1.169 4.631-.15l10.168-10.17c1.322-1.318 1.389-3.392.15-4.63-.034-.03-.07-.052-.103-.082-.042-.044-.072-.097-.116-.143L20.861 3.459c-1.303-1.301-3.36-1.352-4.597-.114-1.238 1.238-1.185 3.296.114 4.599l4.886 4.885H3.168A3.168 3.168 0 0 0 0 15.997v.002z"/></symbol><symbol id="icon-close-black" viewBox="0 0 32 32"><path d="m26.667 7.303-1.97-1.97-7.808 7.808-7.808-7.808-1.97 1.97 7.808 7.808-7.808 7.808 1.97 1.97 7.808-7.808 7.808 7.808 1.97-1.97-7.808-7.808 7.808-7.808z"/></symbol><symbol id="icon-facebook" viewBox="0 0 32 32"><path d="M21.329 5.313h2.921V.225C23.746.156 22.013 0 19.994 0c-4.212 0-7.097 2.649-7.097 7.519V12H8.249v5.688h4.648V32h5.699V17.689h4.46l.708-5.688h-5.169V8.082c.001-1.644.444-2.769 2.735-2.769z"/></symbol></defs></svg>