<svg aria-hidden="true" xmlns="http://www.w3.org/2000/svg"><defs><symbol id="header_burger_btn" viewBox="0 0 20 14" fill="none" xmlns="http://www.w3.org/2000/svg"><path d="M0 1h20M0 7h20M0 13h20" stroke="#D41443"/></symbol><symbol id="arrow_button_menu" viewBox="0 0 8 10" fill="none" xmlns="http://www.w3.org/2000/svg"><path d="m1.107 1 5.258 4-5.258 4" stroke="#D41443" stroke-width="2" stroke-linecap="round" stroke-linejoin="round"/></symbol><symbol id="icon-logo_text_only" viewBox="0 0 208 32"><path d="M4.227 2.715c-2.414.64-2.896 2.723-2.896 14.256v13.456H12.76l-.482-13.936C11.795 1.915 11.15.792 4.227 2.715zm18.837.8c-5.312 2.885-7.245 6.408-7.245 13.296 0 9.451 5.152 13.936 14.651 13.296 6.44-.48 7.083-.962 7.566-4.966s.16-4.325-4.83-4.005c-5.152.48-5.312.16-5.312-5.126 0-5.285.322-5.606 4.992-5.125 3.862.32 5.312-.32 5.955-2.723.322-1.602 0-3.845-.966-4.806-2.253-2.242-10.624-2.242-14.811.16zm19.16.16c-.485 1.282-.645 7.53-.323 14.096l.483 11.854h10.464c9.661 0 10.464-.32 10.949-3.685.482-3.043-.162-3.523-5.152-3.523-3.221 0-5.797-.8-5.797-1.602 0-.962 2.254-1.603 4.83-1.603 3.702 0 4.83-.64 4.83-3.203s-1.128-3.203-4.832-3.203c-2.576 0-4.829-.8-4.829-1.602 0-.962 2.093-1.602 4.669-1.602 4.509 0 7.568-3.525 5.635-6.568-1.45-2.403-19.963-1.762-20.928.64zm32.358-.48c-5.312 2.083-7.405 5.766-7.566 12.494-.16 11.533 4.509 15.538 16.582 14.416 4.669-.32 5.474-1.12 5.474-4.485 0-3.523-.643-4.005-5.152-3.523-3.864.32-5.312-.16-6.117-2.723-1.45-4.966 1.61-8.971 6.762-8.971 3.059 0 4.669-.96 4.992-3.043 1.125-5.126-7.085-7.528-14.974-4.165zm19.802-.64c-.805.64-1.288 7.208-1.288 14.576v13.456l5.152-.48c4.026-.32 5.475-1.443 6.28-4.486l.965-4.005 1.288 4.325c.966 3.685 2.093 4.486 6.28 4.486 6.922 0 7.728-1.122 4.829-6.728-1.771-3.525-2.093-5.286-.805-6.568 2.093-2.082 2.254-9.13.322-12.174-1.61-2.562-20.926-4.645-23.022-2.402zm13.203 8.65c0 1.762-.645 3.203-1.611 3.203-.805 0-1.61-1.44-1.61-3.203 0-1.762.805-3.203 1.61-3.203.966 0 1.611 1.44 1.611 3.203zm15.616-8.49c-.643.48-1.126 7.048-1.126 14.416v13.296h10.464c10.144 0 10.464-.16 10.464-4.005 0-3.365-.805-4.005-4.829-4.005-2.576 0-4.83-.8-4.83-1.602 0-.962 1.771-1.602 4.026-1.602 2.896 0 4.024-.802 4.024-3.205 0-2.402-1.126-3.203-4.024-3.203-2.254 0-4.026-.8-4.026-1.602 0-.96 2.254-1.602 4.83-1.602 4.024 0 4.829-.64 4.829-4.005 0-3.845-.482-4.005-9.338-4.005-5.152 0-9.981.48-10.464 1.12zm32.522-.16c-2.899.8-10.304 22.106-8.856 25.629 1.288 3.205 8.533 2.883 10.464-.48 1.45-2.723 1.611-2.723 4.509 0 3.704 3.203 11.754 3.683 11.754.64 0-.96-1.611-7.368-3.704-13.936-3.219-10.571-4.186-12.013-7.566-12.333-2.254 0-5.152.16-6.6.48zm4.507 14.576c-.483 1.602-.805.64-.805-1.922 0-2.723.322-3.845.805-2.883.322 1.12.322 3.363 0 4.805zm18.675-14.416c-1.45.48-2.093 4.965-2.093 14.256v13.456h4.669c4.024 0 4.829-.802 5.474-4.486.643-4.165.643-4.165 1.931-.8.645 2.082 2.254 3.685 3.381 3.685 1.288 0 3.059-1.603 3.864-3.685 1.288-3.365 1.45-3.365 1.45.96.162 4.005.643 4.486 5.152 4.005l4.99-.48.162-13.296c.322-12.333.16-13.294-3.221-14.096-5.152-1.28-9.498 1.763-10.947 7.69l-1.126 5.286-1.771-5.606c-2.254-7.53-5.635-9.451-11.914-6.888z"/></symbol><symbol id="menu_close_btn" viewBox="0 0 16 16" fill="none" xmlns="http://www.w3.org/2000/svg"><path d="m1.26 1 13.48 14M1 14.74 15 1.26" stroke="#fff"/></symbol></defs></svg>