<svg aria-hidden="true" xmlns="http://www.w3.org/2000/svg"><symbol id="icon-right" viewBox="0 0 32 32"><path d="m19.617 3.906 10.595 10.595a2.118 2.118 0 0 1 0 2.997L19.617 28.093a2.12 2.12 0 0 1-2.997-2.997l6.978-6.978H3.285a2.12 2.12 0 0 1 0-4.238h20.313L16.62 6.902c-.414-.414-.621-.956-.621-1.498s.207-1.085.621-1.498a2.118 2.118 0 0 1 2.997 0z"/></symbol><symbol id="icon-left" viewBox="0 0 32 32"><path d="m12.586 4.586-10 10a2 2 0 0 0 0 2.828l10 10a2 2 0 1 0 2.828-2.828L8.828 18H28a2 2 0 1 0 0-4H8.828l6.586-6.586a1.996 1.996 0 0 0 0-2.828 2 2 0 0 0-2.828 0z"/></symbol><symbol id="icon-user" viewBox="0 0 18 18"><path d="M9 9a3 3 0 1 0 0-6 3 3 0 1 0 0 6Zm0 1.5c-2.003 0-6 1.005-6 3v.75c0 .412.337.75.75.75h10.5c.412 0 .75-.338.75-.75v-.75c0-1.995-3.998-3-6-3Z"/></symbol><symbol id="icon-phone" viewBox="0 0 18 18"><path d="m13.996 11.123-1.838-.21a1.44 1.44 0 0 0-1.187.412l-1.332 1.332a10.888 10.888 0 0 1-4.769-4.77L6.21 6.55a1.44 1.44 0 0 0 .412-1.187l-.21-1.824a1.448 1.448 0 0 0-1.44-1.28H3.72c-.818 0-1.498.68-1.448 1.497.384 6.18 5.327 11.116 11.5 11.5.817.05 1.498-.63 1.498-1.448v-1.252a1.434 1.434 0 0 0-1.274-1.432Z"/></symbol><symbol id="icon-mail" viewBox="0 0 18 18"><path d="M15 3H3c-.825 0-1.492.675-1.492 1.5l-.008 9c0 .825.675 1.5 1.5 1.5h12c.825 0 1.5-.675 1.5-1.5v-9c0-.825-.675-1.5-1.5-1.5Zm-.3 3.188L9.398 9.502a.759.759 0 0 1-.796 0L3.3 6.188a.637.637 0 1 1 .675-1.08L9 8.25l5.025-3.143a.637.637 0 1 1 .675 1.08Z"/></symbol><symbol id="icon-check" viewBox="0 0 42 32"><path fill="#fff" style="fill:var(--color1,#fff);stroke:var(--color1,#fff)" stroke="#fff" stroke-width=".64" d="m6.263 15.205-.22-.21-3.307 3.132 11.651 11.114L38.864 5.89l-3.285-3.134-21.192 20.197-8.124-7.75z"/></symbol><symbol id="icon-close-modal" viewBox="0 0 32 32"><path d="m26.667 7.303-1.97-1.97-7.808 7.808-7.808-7.808-1.97 1.97 7.808 7.808-7.808 7.808 1.97 1.97 7.808-7.808 7.808 7.808 1.97-1.97-7.808-7.808 7.808-7.808z"/></symbol></svg>