<svg aria-hidden="true" xmlns="http://www.w3.org/2000/svg"><symbol id="icon-right" viewBox="0 0 32 32"><path d="m19.617 3.906 10.595 10.595a2.118 2.118 0 0 1 0 2.997L19.617 28.093a2.12 2.12 0 0 1-2.997-2.997l6.978-6.978H3.285a2.12 2.12 0 0 1 0-4.238h20.313L16.62 6.902c-.414-.414-.621-.956-.621-1.498s.207-1.085.621-1.498a2.118 2.118 0 0 1 2.997 0z"/></symbol><symbol id="icon-left" viewBox="0 0 32 32"><path d="m12.586 4.586-10 10a2 2 0 0 0 0 2.828l10 10a2 2 0 1 0 2.828-2.828L8.828 18H28a2 2 0 1 0 0-4H8.828l6.586-6.586a1.996 1.996 0 0 0 0-2.828 2 2 0 0 0-2.828 0z"/></symbol></svg>